/* XPM */
static char * pacMan_xpm[] = {
"96 128 3 1",
" 	c None",
".	c #000000",
"+	c #FFFF00",
"             ......                          ......                          ......             ",
"          ...++++++...                    ...++++++...                    ...++++++...          ",
"        ..++++++++++++..                ..++++++++++++..                ..++++++++++++..        ",
"       .++++++++++++++++.              .++++++++++++++++.              .++++++++++++++++.       ",
"     ..++++++++++++++++++..          ..++++++++++++++++++..          ..++++++++++++++++++..     ",
"    .++++++++++++++++++++++.        .++++++++++++++++++++++.        .++++++++++++++++++++++.    ",
"    .++++++++++++++++++++++.        .++++++++++++++++++++++.        .++++++++++++++++++++++.    ",
"   .++++++++++++++++++++++++.      .++++++++++++++++++++++++.      .++++++++++++++++++++++++.   ",
"  .++++++++++++++++++++++++++.    .++++++++++++++++++++++++++.    .++++++++++++++++++++++++++.  ",
"  .++++++++++++++++++++++++++.    .++++++++++++++++++++++++++.    .++++++++++++++++++++++++++.  ",
" .++++++++++++++++++++++++++++.  .++++++++++++++++++++++++++++.  .++++++++++++++++++++++++++++. ",
" .++++++++++++++++++++++++++++.  .++++++++++++++++++++++++++++.  .++++++++++++++++++++++++++++. ",
" .++++++++++++++++++++++++++++.  .++++++++++++++++++++++++++++.  .++++++++++++++++++++++++++++. ",
" .++++++++++++++++++++++++++++.  .++++++++++++++++++++++++++++.  .++++++++++++++++++++++++++++. ",
".++++++++++++++++++++++++++++++..++++++++++++++++++++++++++++++..++++++++++++++++++++++++++++++.",
".++++++++++++++.+++++++++++++++..++++++++++++++.+++++++++++++++..++++++++++++++.+++++++++++++++.",
".+++++++++++++. .++++++++++++++..++++++++++++++.+++++++++++++++..++++++++++++++.+++++++++++++++.",
".+++++++++++++. .++++++++++++++..+++++++++++++. .++++++++++++++..++++++++++++++.+++++++++++++++.",
" .+++++++++++.   .++++++++++++.  .++++++++++++. .+++++++++++++.  .+++++++++++++.++++++++++++++. ",
" .+++++++++++.    .+++++++++++.  .++++++++++++. .+++++++++++++.  .+++++++++++++.++++++++++++++. ",
" .++++++++++.     .+++++++++++.  .+++++++++++.   .++++++++++++.  .+++++++++++++.++++++++++++++. ",
" .++++++++++.      .++++++++++.  .+++++++++++.   .++++++++++++.  .+++++++++++++.++++++++++++++. ",
"  .++++++++.        .++++++++.    .++++++++++.    .++++++++++.    .++++++++++++.+++++++++++++.  ",
"  .+++++++.         .++++++++.    .+++++++++.     .++++++++++.    .++++++++++++.+++++++++++++.  ",
"   .++++++.          .++++++.      .++++++++.     .+++++++++.      .+++++++++++.++++++++++++.   ",
"    .++++.            .++++.        .++++++.       .+++++++.        .++++++++++.+++++++++++.    ",
"    .++++.            .++++.        .++++++.       .+++++++.        .++++++++++.+++++++++++.    ",
"     ..+.              .+..          ..++++.       .+++++..          ..++++++++.+++++++++..     ",
"       .                .              .++.         .+++.              .+++++++.++++++++.       ",
"                                        ...         .+..                ..+++++.++++++..        ",
"                                                     .                    ...++.+++...          ",
"                                                                             ......             ",
"              ....                            ....                            ....              ",
"          ....++++....                    ....++++....                    ....++++....          ",
"        ..++++++++++++..                ..++++++++++++..                ..++++++++++++..        ",
"       .++++++++++++++++.              .++++++++++++++++.              .++++++++++++++++.       ",
"     ..++++++++++++++++++..          ..++++++++++++++++++..          ..++++++++++++++++++..     ",
"    .++++++++++++++++++++++.        .++++++++++++++++++++++.        .++++++++++++++++++++++.    ",
"    .++++++++++++++++++++++.        .++++++++++++++++++++++.        .++++++++++++++++++++++.    ",
"   .++++++++++++++++++++++++.      .++++++++++++++++++++++++.      .++++++++++++++++++++++++.   ",
"    .++++++++++++++++++++++++.    .++++++++++++++++++++++++++.    .++++++++++++++++++++++++++.  ",
"     ..++++++++++++++++++++++.    .++++++++++++++++++++++++++.    .++++++++++++++++++++++++++.  ",
"       .++++++++++++++++++++++.  .++++++++++++++++++++++++++++.  .++++++++++++++++++++++++++++. ",
"        ..++++++++++++++++++++.   ..++++++++++++++++++++++++++.  .++++++++++++++++++++++++++++. ",
"          .+++++++++++++++++++.     ...+++++++++++++++++++++++.  .++++++++++++++++++++++++++++. ",
"           ..++++++++++++++++++.       ...+++++++++++++++++++++..++++++++++++++++++++++++++++++.",
"             .+++++++++++++++++.          ..+++++++++++++++++++..++++++++++++++++++++++++++++++.",
"              ..+++++++++++++++.            ...++++++++++++++++..++++++++++++++++++++++++++++++.",
"                .++++++++++++++.               ..++++++++++++++..................++++++++++++++.",
"              ..+++++++++++++++.            ...++++++++++++++++..++++++++++++++++++++++++++++++.",
"            ..+++++++++++++++++.         ...+++++++++++++++++++..++++++++++++++++++++++++++++++.",
"          ..++++++++++++++++++.        ..+++++++++++++++++++++.  .++++++++++++++++++++++++++++. ",
"         .++++++++++++++++++++.     ...+++++++++++++++++++++++.  .++++++++++++++++++++++++++++. ",
"       ..+++++++++++++++++++++.   ..++++++++++++++++++++++++++.  .++++++++++++++++++++++++++++. ",
"     ..++++++++++++++++++++++.    .++++++++++++++++++++++++++.    .++++++++++++++++++++++++++.  ",
"    .++++++++++++++++++++++++.    .++++++++++++++++++++++++++.    .++++++++++++++++++++++++++.  ",
"   .++++++++++++++++++++++++.      .++++++++++++++++++++++++.      .++++++++++++++++++++++++.   ",
"    .++++++++++++++++++++++.        .++++++++++++++++++++++.        .++++++++++++++++++++++.    ",
"    .++++++++++++++++++++++.        .++++++++++++++++++++++.        .++++++++++++++++++++++.    ",
"     ..++++++++++++++++++..          ..++++++++++++++++++..          ..++++++++++++++++++..     ",
"       .++++++++++++++++.              .++++++++++++++++.              .++++++++++++++++.       ",
"        ..++++++++++++..                ..++++++++++++..                ..++++++++++++..        ",
"          ....++++....                    ....++++....                    ....++++....          ",
"              ....                            ....                            ....              ",
"              ....                            ....                            ....              ",
"          ....++++....                    ....++++....                    ....++++....          ",
"        ..++++++++++++..                ..++++++++++++..                ..++++++++++++..        ",
"       .++++++++++++++++.              .++++++++++++++++.              .++++++++++++++++.       ",
"     ..++++++++++++++++++..          ..++++++++++++++++++..          ..++++++++++++++++++..     ",
"    .++++++++++++++++++++++.        .++++++++++++++++++++++.        .++++++++++++++++++++++.    ",
"    .++++++++++++++++++++++.        .++++++++++++++++++++++.        .++++++++++++++++++++++.    ",
"   .++++++++++++++++++++++++.      .++++++++++++++++++++++++.      .++++++++++++++++++++++++.   ",
"  .++++++++++++++++++++++++.      .++++++++++++++++++++++++++.    .++++++++++++++++++++++++++.  ",
"  .++++++++++++++++++++++..       .++++++++++++++++++++++++++.    .++++++++++++++++++++++++++.  ",
" .++++++++++++++++++++++.        .++++++++++++++++++++++++++++.  .++++++++++++++++++++++++++++. ",
" .++++++++++++++++++++..         .++++++++++++++++++++++++++..   .++++++++++++++++++++++++++++. ",
" .+++++++++++++++++++.           .+++++++++++++++++++++++...     .++++++++++++++++++++++++++++. ",
".++++++++++++++++++..           .+++++++++++++++++++++...       .++++++++++++++++++++++++++++++.",
".+++++++++++++++++.             .+++++++++++++++++++..          .++++++++++++++++++++++++++++++.",
".+++++++++++++++..              .++++++++++++++++...            .++++++++++++++++++++++++++++++.",
".++++++++++++++.                .++++++++++++++..               .++++++++++++++.................",
".+++++++++++++++..              .++++++++++++++++...            .++++++++++++++++++++++++++++++.",
".+++++++++++++++++..            .+++++++++++++++++++...         .++++++++++++++++++++++++++++++.",
" .++++++++++++++++++..           .+++++++++++++++++++++..        .++++++++++++++++++++++++++++. ",
" .++++++++++++++++++++.          .+++++++++++++++++++++++...     .++++++++++++++++++++++++++++. ",
" .+++++++++++++++++++++..        .++++++++++++++++++++++++++..   .++++++++++++++++++++++++++++. ",
"  .++++++++++++++++++++++..       .++++++++++++++++++++++++++.    .++++++++++++++++++++++++++.  ",
"  .++++++++++++++++++++++++.      .++++++++++++++++++++++++++.    .++++++++++++++++++++++++++.  ",
"   .++++++++++++++++++++++++.      .++++++++++++++++++++++++.      .++++++++++++++++++++++++.   ",
"    .++++++++++++++++++++++.        .++++++++++++++++++++++.        .++++++++++++++++++++++.    ",
"    .++++++++++++++++++++++.        .++++++++++++++++++++++.        .++++++++++++++++++++++.    ",
"     ..++++++++++++++++++..          ..++++++++++++++++++..          ..++++++++++++++++++..     ",
"       .++++++++++++++++.              .++++++++++++++++.              .++++++++++++++++.       ",
"        ..++++++++++++..                ..++++++++++++..                ..++++++++++++..        ",
"          ....++++....                    ....++++....                    ....++++....          ",
"              ....                            ....                            ....              ",
"                                                                             ......             ",
"                                          .                               ...+++.++...          ",
"                                        ..+.         ...                ..++++++.+++++..        ",
"       .                .              .+++.         .++.              .++++++++.+++++++.       ",
"     ..+.              .+..          ..+++++.       .++++..          ..+++++++++.++++++++..     ",
"    .++++.            .++++.        .+++++++.       .++++++.        .+++++++++++.++++++++++.    ",
"    .++++.            .++++.        .+++++++.       .++++++.        .+++++++++++.++++++++++.    ",
"   .++++++.          .++++++.      .+++++++++.     .++++++++.      .++++++++++++.+++++++++++.   ",
"  .++++++++.         .+++++++.    .++++++++++.     .+++++++++.    .+++++++++++++.++++++++++++.  ",
"  .++++++++.        .++++++++.    .++++++++++.    .++++++++++.    .+++++++++++++.++++++++++++.  ",
" .++++++++++.      .++++++++++.  .++++++++++++.   .+++++++++++.  .++++++++++++++.+++++++++++++. ",
" .+++++++++++.     .++++++++++.  .++++++++++++.   .+++++++++++.  .++++++++++++++.+++++++++++++. ",
" .+++++++++++.    .+++++++++++.  .+++++++++++++. .++++++++++++.  .++++++++++++++.+++++++++++++. ",
" .++++++++++++.   .+++++++++++.  .+++++++++++++. .++++++++++++.  .++++++++++++++.+++++++++++++. ",
".++++++++++++++. .+++++++++++++..++++++++++++++. .+++++++++++++..+++++++++++++++.++++++++++++++.",
".++++++++++++++. .+++++++++++++..+++++++++++++++.++++++++++++++..+++++++++++++++.++++++++++++++.",
".+++++++++++++++.++++++++++++++..+++++++++++++++.++++++++++++++..+++++++++++++++.++++++++++++++.",
".++++++++++++++++++++++++++++++..++++++++++++++++++++++++++++++..++++++++++++++++++++++++++++++.",
" .++++++++++++++++++++++++++++.  .++++++++++++++++++++++++++++.  .++++++++++++++++++++++++++++. ",
" .++++++++++++++++++++++++++++.  .++++++++++++++++++++++++++++.  .++++++++++++++++++++++++++++. ",
" .++++++++++++++++++++++++++++.  .++++++++++++++++++++++++++++.  .++++++++++++++++++++++++++++. ",
" .++++++++++++++++++++++++++++.  .++++++++++++++++++++++++++++.  .++++++++++++++++++++++++++++. ",
"  .++++++++++++++++++++++++++.    .++++++++++++++++++++++++++.    .++++++++++++++++++++++++++.  ",
"  .++++++++++++++++++++++++++.    .++++++++++++++++++++++++++.    .++++++++++++++++++++++++++.  ",
"   .++++++++++++++++++++++++.      .++++++++++++++++++++++++.      .++++++++++++++++++++++++.   ",
"    .++++++++++++++++++++++.        .++++++++++++++++++++++.        .++++++++++++++++++++++.    ",
"    .++++++++++++++++++++++.        .++++++++++++++++++++++.        .++++++++++++++++++++++.    ",
"     ..++++++++++++++++++..          ..++++++++++++++++++..          ..++++++++++++++++++..     ",
"       .++++++++++++++++.              .++++++++++++++++.              .++++++++++++++++.       ",
"        ..++++++++++++..                ..++++++++++++..                ..++++++++++++..        ",
"          ...++++++...                    ...++++++...                    ...++++++...          ",
"             ......                          ......                          ......             "};
